# xmcd
# 
# Track frame offsets:
#     150
#     19234
#     32049
#     50966
#     67069
#     84481
#     103161
#     116435
#     125586
#     147930
# 
# Disc length: 2116
# 
# Revision: 3
# Processed by: cddbd v1.5.2PL0 Copyright (c) Steve Scherf et al.
# Submitted via: fre:ac v1.0.17
# 
DISCID=9308420a
DTITLE=Crosby Stills Nash Young - Deja vu
DYEAR=1974
DGENRE=Country
TTITLE0=Carry On
TTITLE1=Teach Your Children\n
TTITLE2=Almost Cut My Hair\n
TTITLE3=Helpless\n
TTITLE4=Woodstock\n
TTITLE5=Deja Vu\n
TTITLE6=Our House\n
TTITLE7=4 And 20\n
TTITLE8=Country Girl\n
TTITLE9=Everybody I Love You\n
EXTD=
EXTT0=
EXTT1=
EXTT2=
EXTT3=
EXTT4=
EXTT5=
EXTT6=
EXTT7=
EXTT8=
EXTT9=
PLAYORDER=
